<svg id="Groupe_4700" data-name="Groupe 4700" xmlns="http://www.w3.org/2000/svg" xmlns:xlink="http://www.w3.org/1999/xlink" width="28.454" height="31.212" viewBox="0 0 28.454 31.212">
  <g id="Groupe_29" data-name="Groupe 29" transform="translate(0 0)">
    <g id="Groupe_27" data-name="Groupe 27" transform="translate(0 21.447)">
      <path id="Tracé_26" data-name="Tracé 26" d="M8.179,1.665C7.579-.309,2.73-2.98.475-3.964A.571.571,0,0,0,0-3.955L-5.471-1.312l-4.9-2.632a.574.574,0,0,0-.48-.028c-1.962.764-7.7,3.444-8.27,5.661-.409,1.583-.572,2.359-.579,2.391a.543.543,0,0,0-.013.117,1.367,1.367,0,0,0,.719,1.317,3.424,3.424,0,0,0,1.657.219c.129,0,.259,0,.391,0H5.976c.173,0,.344.006.508.011s.331.011.484.011c.44,0,1.774,0,1.774-1.479a7.924,7.924,0,0,0-.563-2.609M6.968,4.606c-.14,0-.29,0-.443-.01-.178-.007-.362-.013-.549-.013H-16.946c-.139,0-.276,0-.412,0s-.242,0-.359,0h0a2.08,2.08,0,0,1-.743-.089c-.035-.018-.093-.045-.1-.242.047-.212.216-.971.555-2.277s4.412-3.608,7.331-4.784L-5.755-.165a.57.57,0,0,0,.519.011L.257-2.808C3.484-1.358,6.761.942,7.082,2A7.008,7.008,0,0,1,7.6,4.274c0,.263,0,.333-.628.333" transform="translate(19.712 4.012)"/>
    </g>
    <g id="Groupe_28" data-name="Groupe 28" transform="translate(6.498 0)">
      <path id="Tracé_27" data-name="Tracé 27" d="M.5,4.326A10.832,10.832,0,0,0,1.535,6.235c.1.164.211.333.318.507A5.44,5.44,0,0,0,3.022,8.155,10.238,10.238,0,0,1,2.8,9.931.573.573,0,1,0,3.91,10.2,12.119,12.119,0,0,0,4.178,7.9a.57.57,0,0,0-.246-.487,4.023,4.023,0,0,1-1.1-1.265c-.11-.181-.221-.354-.33-.525A9.177,9.177,0,0,1,1.47,3.645a.617.617,0,0,0-.519-.379.5.5,0,0,1-.289-.242A6.246,6.246,0,0,1-.057.009a.517.517,0,0,1,.219-.03A.534.534,0,0,0,.586-.189.573.573,0,0,0,.751-.613C.631-3.9,1.841-5.669,2.878-6.572a.576.576,0,0,0,.146-.668c-.007-.016-.016-.031-.023-.045a2.633,2.633,0,0,1,1.32-.3l.031-.573.473-.324a.768.768,0,0,1,.147-.487,3.187,3.187,0,0,0,1.166.579A19,19,0,0,1,8.7-7.5c2.444.968,3.772,3.479,3.646,6.888A.575.575,0,0,0,12.5-.2a.574.574,0,0,0,.406.18c.106,0,.16.024.156.013a6.029,6.029,0,0,1-.7,3.035.524.524,0,0,1-.286.25.577.577,0,0,0-.46.369,9.657,9.657,0,0,1-1.037,1.963c-.116.181-.233.365-.351.559A4.368,4.368,0,0,1,9.23,7.382a.572.572,0,0,0-.222.457A10.042,10.042,0,0,0,9.3,10.27a.572.572,0,0,0,.552.422.609.609,0,0,0,.151-.02.574.574,0,0,0,.4-.7A8.663,8.663,0,0,1,10.158,8.1,5.932,5.932,0,0,0,11.2,6.767c.115-.185.226-.362.338-.538A11.178,11.178,0,0,0,12.586,4.31a1.7,1.7,0,0,0,.778-.732,6.564,6.564,0,0,0,.778-3.965,1.1,1.1,0,0,0-.645-.668c-.006-3.631-1.619-6.418-4.357-7.5a20.066,20.066,0,0,0-2.7-.942,1.7,1.7,0,0,1-.838-.446.57.57,0,0,0-.239-.379.573.573,0,0,0-.439-.091c-.5.1-.938.771-1.109,1.2a1.933,1.933,0,0,0-.136.515A2.364,2.364,0,0,0,1.569-7.16a.62.62,0,0,0-.028.3A8.367,8.367,0,0,0-.4-1.085a1.1,1.1,0,0,0-.717.695A6.55,6.55,0,0,0-.344,3.573,1.684,1.684,0,0,0,.5,4.326" transform="translate(1.211 10.426)"/>
    </g>
  </g>
</svg>
