<?xml version="1.0" encoding="UTF-8"?>
<svg width="36px" height="36px" viewBox="0 0 36 36" version="1.1" xmlns="http://www.w3.org/2000/svg" xmlns:xlink="http://www.w3.org/1999/xlink">
    <title>Linkedin</title>
    <g id="HOME-OnePage-MVP" stroke="none" stroke-width="1" fill="none" fill-rule="evenodd">
        <g id="Linkedin">
            <circle id="Background" fill="#2977C9" cx="18" cy="18" r="18"></circle>
            <path d="M26.5514286,8 L9.50761905,8 C8.69238095,8 8,8.6447619 8,9.43904762 L8,26.56 C8,27.3552381 8.45428571,28 9.26952381,28 L26.3133333,28 C27.1295238,28 28,27.3552381 28,26.56 L28,9.43904762 C28,8.6447619 27.367619,8 26.5514286,8 Z M15.6190476,15.6190476 L18.3114286,15.6190476 L18.3114286,16.9914286 L18.3409524,16.9914286 C18.7514286,16.2514286 19.9638095,15.5 21.4628571,15.5 C24.34,15.5 25.1428571,17.027619 25.1428571,19.8571429 L25.1428571,25.1428571 L22.2857143,25.1428571 L22.2857143,20.3780952 C22.2857143,19.1114286 21.78,18 20.5971429,18 C19.1609524,18 18.4761905,18.972381 18.4761905,20.5685714 L18.4761905,25.1428571 L15.6190476,25.1428571 L15.6190476,15.6190476 Z M10.8571429,25.1428571 L13.7142857,25.1428571 L13.7142857,15.6190476 L10.8571429,15.6190476 L10.8571429,25.1428571 Z M14.0714286,12.2857143 C14.0714286,13.272381 13.272381,14.0714286 12.2857143,14.0714286 C11.2990476,14.0714286 10.5,13.272381 10.5,12.2857143 C10.5,11.2990476 11.2990476,10.5 12.2857143,10.5 C13.272381,10.5 14.0714286,11.2990476 14.0714286,12.2857143 Z" fill="#FFFFFF"></path>
        </g>
    </g>
</svg>