<svg xmlns="http://www.w3.org/2000/svg" width="40.4" height="33" viewBox="0 0 40.4 33">
  <g id="Groupe_15541" data-name="Groupe 15541" transform="translate(1208.664 -986.813)">
    <path id="Tracé_69495" data-name="Tracé 69495" d="M-1169.389,1004.749l-2.318-.283-4.533-.573-5.113-.69-5-.649-4.561-.58-2.657-.331a2.756,2.756,0,0,0-.476,0,1.431,1.431,0,0,0,.048.455l4.182,11.986a2.45,2.45,0,0,0,2.4,1.7h12.006a2.63,2.63,0,0,0,2.546-1.7l2.9-6.735c.3-.69.594-1.38.883-2.07C-1169,1004.977-1169.106,1004.784-1169.389,1004.749Zm-21.232,3.685c-.586-1.794-1.187-3.581-1.78-5.368a.514.514,0,0,1,0-.145l4.285.545c.4,1.787.793,3.581,1.2,5.41l-1.732-.11-1.635-.124C-1190.455,1008.634-1190.558,1008.607-1190.621,1008.434Zm4.975,6.355c-.69,0-1.38.041-2.07,0a1.229,1.229,0,0,1-1.076-.862c-.455-1.318-.89-2.643-1.325-3.961a.337.337,0,0,1,0-.124l1.815.117a13.835,13.835,0,0,1,1.422.11.388.388,0,0,1,.248.179c.338,1.49.69,2.981.994,4.478Zm3.8-.09a.218.218,0,0,1,0,.09h-2.574c-.338-1.532-.69-3.064-1.028-4.63.345,0,.69.034.987.062l2.367.159c.138,0,.248,0,.248.221Zm0-5.568a.226.226,0,0,1,0,.1l-1.38-.083-2.222-.124c-.145,0-.269,0-.31-.221-.373-1.711-.752-3.45-1.139-5.168l4.14.517c.228,0,.455.069.69.09s.214.041.214.207Zm3.705,5.651h-2.532V1010.5l3.45.241c-.29,1.366-.6,2.7-.911,4.044Zm.918-5.217c-1.132-.09-2.263-.159-3.45-.242v-4.906l4.83.614c-.062.283-.117.545-.179.8-.262,1.145-.538,2.291-.794,3.45A.313.313,0,0,1-1177.227,1009.566Zm3.278,4.4h0a1.437,1.437,0,0,1-1.38.828h-1.642c.31-1.339.621-2.643.931-3.968l3.305.248C-1173.156,1012.05-1173.515,1013.023-1173.95,1013.968Zm3.312-8c-.5,1.242-1,2.477-1.5,3.719a.29.29,0,0,1-.345.221c-.925-.076-1.849-.131-2.76-.193a1.44,1.44,0,0,1-.421-.048c.352-1.511.69-2.981,1.042-4.478l4.085.524a1.862,1.862,0,0,1-.131.255Z" transform="translate(-4.529 -4.594)"/>
    <path id="Tracé_69496" data-name="Tracé 69496" d="M-1174.419,1017.569h0a1.809,1.809,0,0,0-.386,0h-18.975a1.059,1.059,0,0,1,.069-.331c.255-.966.518-1.939.766-2.905a.755.755,0,0,0,0-.428c-.455-1.325-.918-2.643-1.38-3.968-1.208-3.45-2.422-6.9-3.616-10.35a1.159,1.159,0,0,0-.932-.738c-.172.38-.331.745-.455,1.021a2.941,2.941,0,0,1,.331.545q2.366,6.769,4.727,13.538a.692.692,0,0,1,0,.4c-.221.89-.462,1.773-.69,2.663a1.331,1.331,0,0,0,.771,1.718h0a1.059,1.059,0,0,0,.414.083h19.217a.616.616,0,0,0,.6-.545.594.594,0,0,0-.459-.7Z" transform="translate(-2.894 -3.731)"/>
    <path id="Tracé_69497" data-name="Tracé 69497" d="M-1207.17,994.855a1.492,1.492,0,0,0-.393-.117,1.021,1.021,0,0,0-1.07.787.958.958,0,0,0,.656,1.159c.738.3,1.483.593,2.229.883l1.911.773c.269-.621.538-1.221.807-1.828l-.2-.1Z" transform="translate(0 -2.456)"/>
    <path id="Tracé_69498" data-name="Tracé 69498" d="M-1186.984,1029.839h0a1.655,1.655,0,0,0-1.635,1.676,1.655,1.655,0,0,0,1.677,1.635,1.656,1.656,0,0,0,1.635-1.655,1.65,1.65,0,0,0-1.642-1.657h-.035Z" transform="translate(-6.213 -13.337)"/>
    <path id="Tracé_69499" data-name="Tracé 69499" d="M-1168.73,1029.849a1.649,1.649,0,0,0-1.649,1.649,1.649,1.649,0,0,0,1.649,1.649,1.65,1.65,0,0,0,1.649-1.649h0A1.65,1.65,0,0,0-1168.73,1029.849Z" transform="translate(-11.868 -13.34)"/>
    <path id="Tracé_69500" data-name="Tracé 69500" d="M-1161.019,995.571h0a3.1,3.1,0,0,0-.918.373,3.029,3.029,0,0,0-1.029,4.158,3.03,3.03,0,0,0,4.159,1.029,3.029,3.029,0,0,0,1.028-4.159,3.028,3.028,0,0,0-3.24-1.394Zm1.718,4.6h0a2.154,2.154,0,0,1-.594.242,1.933,1.933,0,0,1-2.282-1.5,1.932,1.932,0,0,1,1.5-2.282,1.932,1.932,0,0,1,2.282,1.5,1.933,1.933,0,0,1-.888,2.041Z" transform="translate(-14.031 -2.695)"/>
    <path id="Tracé_69501" data-name="Tracé 69501" d="M-1163.531,991.316a7.208,7.208,0,0,0-2.636-3.195h-.048v-.048c-.435-.552-1.8-1.766-5.092-1.028a15.752,15.752,0,0,0-2.9.98h-.166a22.6,22.6,0,0,0-7.59.255,13.592,13.592,0,0,0-4.492,1.835c-4.83,3.215-6.21,4.651-6.21,5.265-.042.235.31.421.69.4s.787-.6.787-.6A36.022,36.022,0,0,1-1185.77,991a12.181,12.181,0,0,1,4.085-1.663,21.777,21.777,0,0,1,7.369-.228.353.353,0,0,0,.207,0,.193.193,0,0,0,.1-.034,16.193,16.193,0,0,1,2.919-1.007,6.2,6.2,0,0,1,2.76-.083,2.069,2.069,0,0,1,1.29.807.476.476,0,0,0,.4.3,6.409,6.409,0,0,1,2.07,2.67.989.989,0,0,1,.062.814,1.959,1.959,0,0,1-.9.863.531.531,0,0,0-.313.682l0,.008h0a.518.518,0,0,0,.621.331h.083a2.987,2.987,0,0,0,1.573-1.47A2.075,2.075,0,0,0-1163.531,991.316Z" transform="translate(-4.957 0)"/>
  </g>
</svg>
