<svg xmlns="http://www.w3.org/2000/svg" width="31.574" height="31.156" viewBox="0 0 31.574 31.156">
  <g id="Groupe_290" data-name="Groupe 290" transform="translate(-0.003 0.006)">
    <path id="Tracé_970" data-name="Tracé 970" d="M31.566,25.791a2.282,2.282,0,0,0-1.119-1.531L23.5,19.49a2.241,2.241,0,0,0-2.944.471l-1.826,2.532a1.4,1.4,0,0,0-.177.707c-.707.118-2.709.059-6.007-3.239-3.18-3.18-4.711-5.536-4.476-6.949.059,0,.059-.059.118-.059a2.871,2.871,0,0,0,.412-.177l2.473-1.884a2.184,2.184,0,0,0,.412-2.944L6.538,1.116C5.537-.238,4.418-.356,3.24.7A15.282,15.282,0,0,0,.649,3.884,2.625,2.625,0,0,0,.3,5.474a14.71,14.71,0,0,0,.059,6.183A24.31,24.31,0,0,0,7.716,23.789c6.6,6.36,12.367,7.361,15.252,7.361h0a9.144,9.144,0,0,0,3.416-.53,2.658,2.658,0,0,0,1.472-.412,15.164,15.164,0,0,0,3.121-2.65A2.541,2.541,0,0,0,31.566,25.791Zm-1.531,1a12.505,12.505,0,0,1-2.827,2.414l-.353.177a8.448,8.448,0,0,1-2.591-1.59.589.589,0,0,0-.942.707,5.668,5.668,0,0,0,1.708,1.3,9.61,9.61,0,0,1-2.12.236h0c-2.709,0-8.127-.883-14.428-7.008C-.47,14.308,1.238,6.475,1.474,5.651V5.415a1.365,1.365,0,0,1,.177-.942,15.962,15.962,0,0,1,2.3-2.886,1.337,1.337,0,0,1,.824-.412c.118,0,.353,0,.824.589L10.6,8.6a.982.982,0,0,1-.118,1.3L7.951,11.775H7.892a8.624,8.624,0,0,1-1.826-1.708.6.6,0,0,0-1,.648A9.275,9.275,0,0,0,6.95,12.541c-.471,1.943,1,4.476,4.77,8.245,3,3,5.182,3.592,6.478,3.592a2.833,2.833,0,0,0,1.237-.236c.177-.118.294-.236.294-.412V23.2L21.5,20.727a.99.99,0,0,1,1.3-.177l6.949,4.77a1.366,1.366,0,0,1,.648.707C30.447,26.144,30.329,26.439,30.035,26.792Z" transform="translate(0 0)"/>
    <path id="Tracé_971" data-name="Tracé 971" d="M25.42,10.694a14.489,14.489,0,0,1,9.54,9.481.585.585,0,0,0,.589.412h.177a.675.675,0,0,0,.412-.766A15.363,15.363,0,0,0,25.832,9.575a.523.523,0,0,0-.707.412A.427.427,0,0,0,25.42,10.694Z" transform="translate(-10.284 -3.924)"/>
    <path id="Tracé_972" data-name="Tracé 972" d="M26.7,3.3A17.6,17.6,0,0,1,40.013,17.313a.573.573,0,0,0,.589.471h.118a.611.611,0,0,0,.471-.707A18.816,18.816,0,0,0,27,2.178a.559.559,0,0,0-.707.412A.606.606,0,0,0,26.7,3.3Z" transform="translate(-10.803 -0.885)"/>
  </g>
</svg>
