<svg width="355" height="205" viewBox="0 0 355 205" fill="none" xmlns="http://www.w3.org/2000/svg">
<path d="M39.4008 74.8525L19.4934 51.4944L9.67236 61.5808L39.4008 74.8525Z" fill="#009A44"/>
<path d="M34.8875 80.6924L8.07874 76.7109L11.2639 89.9826L34.8875 80.6924Z" fill="#009A44"/>
<path d="M40.7266 68.2172L33.8254 57.3345L38.8686 52.2913L40.7266 68.2172Z" fill="#009A44"/>
<path d="M300.586 155.278L113.19 176.513C109.474 177.044 106.289 174.39 105.758 170.673L94.3444 69.0127C93.8135 65.2966 96.4678 62.1115 100.184 61.5806L287.58 40.346C291.296 39.8151 294.481 42.4694 295.012 46.1855L306.425 147.846C306.956 151.562 304.302 154.748 300.586 155.278Z" fill="#009A44"/>
<path d="M299.79 42.4691L343.852 -0.00012207L355 28.6666L299.79 42.4691Z" fill="#009A44"/>
<path d="M291.562 35.8334L308.019 11.9445L296.871 0L291.562 35.8334Z" fill="#009A44"/>
<path d="M316.512 50.1671L334.562 56.5375L340.401 47.2473L316.512 50.1671Z" fill="#009A44"/>
<path d="M250.42 139.617C249.889 139.087 249.358 138.821 248.562 139.087L152.21 149.969C151.148 149.969 150.086 151.031 150.086 152.093L149.821 160.321C149.821 161.117 150.086 161.648 150.617 162.179C151.148 162.71 151.679 162.71 152.21 162.71H152.475L248.827 151.827C249.889 151.827 250.951 150.766 250.951 149.704L251.216 141.475C251.216 140.679 250.951 140.148 250.42 139.617Z" fill="white"/>
<path d="M116.11 99.5372C99.3882 70.3396 72.5795 57.3334 52.672 68.747C45.2399 72.9939 40.1967 79.6297 37.8078 87.8582C34.888 90.5125 33.03 93.9631 31.9682 98.2101C30.6411 104.05 29.8448 108.562 17.9003 115.994C17.104 116.525 16.3077 117.056 15.5114 117.321C15.246 117.321 15.246 117.587 14.9805 117.587C8.3447 121.834 4.09778 128.469 2.77061 136.698C2.77061 137.494 2.23975 138.025 1.97431 138.821C-1.74175 147.846 -0.149151 158.994 6.22124 168.815C13.3879 179.963 24.5361 185.803 34.888 185.007C37.5423 185.537 40.4621 185.803 43.1164 185.803C46.567 190.05 50.814 193.766 56.9189 197.482C60.3696 199.605 66.4745 203.587 73.6412 204.383C80.0116 205.179 86.9129 203.587 94.0796 196.951C102.043 189.254 105.228 179.433 105.759 172.266C107.351 171.735 108.678 170.939 110.271 170.142C130.444 158.463 132.833 129 116.11 99.5372Z" fill="#009A44"/>
<path d="M69.3948 157.401C64.3515 157.932 55.8577 161.648 51.8762 164.303C57.1848 171.735 60.1046 175.982 67.5367 180.494C75.7651 185.537 77.3578 185.272 80.2775 182.352C84.7899 178.105 85.8516 172.531 85.8516 170.938C86.117 156.34 76.296 173.858 69.3948 157.401ZM68.5985 106.969C67.8022 107.235 69.3948 114.136 73.6417 122.099C78.6849 131.123 85.3207 136.963 85.5862 136.698C90.0985 131.92 92.222 122.63 87.7096 115.463C83.1973 108.296 74.9689 105.642 68.5985 106.969ZM98.8578 109.623C88.5059 91.3085 72.0491 80.6912 62.4935 86.2653C52.9379 91.8394 53.7342 110.951 64.0861 129.531C74.438 147.846 90.8948 158.463 100.45 152.889C110.006 147.315 109.21 127.938 98.8578 109.623ZM96.9998 144.13C90.6294 147.846 78.9503 139.352 70.9874 125.284C63.0244 111.216 61.6972 96.8826 68.0676 93.432C74.438 89.7159 86.117 98.2098 94.08 112.278C102.043 126.08 103.37 140.414 96.9998 144.13ZM85.3207 155.278C80.2775 153.154 76.0306 149.969 72.58 146.519C71.2528 146.519 69.6602 146.519 68.333 146.784C65.1478 147.315 61.6972 148.111 57.9811 149.438C55.0614 148.907 51.3453 145.988 48.4256 141.475C45.5058 136.963 44.4441 132.185 45.5058 129.265C48.1601 126.611 50.2836 124.222 52.1416 121.568C52.9379 120.241 53.7342 118.914 54.5305 117.586C52.6725 112.012 51.8762 106.704 51.6108 102.457C50.0182 110.42 47.6293 121.302 28.7835 132.981C27.9872 133.512 26.9255 134.043 26.1292 134.574C23.4749 136.167 22.6786 139.617 22.944 143.864C21.8823 144.395 21.3514 144.661 21.3514 144.661C20.8205 145.191 20.5551 145.457 20.5551 146.253C19.2279 148.907 20.2897 153.685 23.2094 157.932C26.6601 163.241 31.4378 166.161 34.3576 164.833C34.3576 164.833 34.3576 164.833 34.623 164.833C34.623 164.833 35.1539 164.568 35.9502 164.037C39.4008 165.895 42.586 166.426 44.9749 164.833C45.2404 164.833 45.2404 164.568 45.5058 164.568C46.3021 164.037 47.0984 163.506 47.6293 163.241C65.9441 151.562 77.6232 153.42 85.3207 155.278Z" fill="white"/>
<path d="M133.894 95.5555C134.425 95.29 134.69 94.7592 134.956 93.9629C135.221 93.1666 135.221 92.6357 135.221 91.8394C135.221 91.0431 134.69 90.2468 132.567 90.5122L125.4 91.3085L125.931 81.753V71.932C125.931 71.4011 125.666 71.1357 125.4 70.8702C124.869 70.3394 123.808 70.3394 122.215 70.3394C121.153 70.3394 120.623 70.6048 120.357 70.8702C120.092 71.1357 119.561 71.6665 119.561 72.4628L118.234 96.3518L119.295 97.1481L132.832 95.5555C133.098 96.0863 133.629 95.8209 133.894 95.5555Z" fill="white"/>
<path d="M151.943 93.6975C153.005 93.6975 153.536 93.1667 154.067 92.6358C154.332 92.1049 154.598 91.3086 154.598 89.9815C154.598 89.1852 154.067 88.6543 153.801 88.6543C153.536 88.3889 152.74 88.3889 151.943 88.3889L143.184 89.4506L143.449 83.8765L151.147 82.8148C152.209 82.5494 152.74 82.0185 153.005 81.7531C153.27 81.2222 153.27 80.6913 153.536 79.895C153.536 79.0987 153.536 78.8333 153.536 78.8333C153.536 78.5679 153.27 78.037 153.005 77.7716C152.474 77.5061 151.943 77.2407 151.147 77.5061L143.98 78.3024V73.7901L152.74 72.7283C153.536 72.7283 154.863 72.1975 155.128 70.074C155.394 69.5431 155.394 69.0123 155.394 68.7468C155.394 68.216 154.863 67.4197 153.005 67.4197L137.61 69.2777L136.283 94.4938L137.344 95.2901L151.943 93.6975Z" fill="white"/>
<path d="M156.19 90.5121C158.048 91.8393 160.437 92.6356 163.357 92.6356C164.419 92.6356 165.215 92.6356 166.277 92.3702C172.382 91.5739 175.567 88.3887 176.098 82.5492C176.098 82.0183 176.098 81.7529 176.098 81.4874C175.832 80.1603 175.301 79.0985 174.24 78.3022C173.178 77.5059 171.585 76.7096 169.462 76.1788C167.604 75.6479 166.011 75.117 165.215 74.5862C164.419 74.0553 164.153 73.7899 164.153 73.259V72.9936C164.153 72.1973 164.419 71.6664 164.95 71.401C165.48 70.8701 166.011 70.6047 166.808 70.6047C167.604 70.6047 168.666 70.6047 169.727 70.8701C171.585 71.1355 171.851 71.1355 172.116 71.1355C172.382 71.1355 172.913 70.8701 173.178 70.8701C173.443 70.6047 173.709 70.3392 174.505 68.7466C174.771 68.4812 174.771 67.9503 174.771 67.6849C174.771 67.4195 174.505 66.8886 173.709 66.6232C173.443 66.6232 173.178 66.3578 172.913 66.3578C171.055 65.8269 169.197 65.8269 167.073 66.0923C163.888 66.6232 161.234 67.4195 159.641 68.7466C157.783 69.5429 156.721 71.6664 156.456 74.3207C156.456 74.5862 156.456 74.8516 156.456 75.117C156.721 76.4442 157.517 77.5059 158.845 78.8331C160.172 79.8948 161.764 80.6911 163.622 81.222C165.48 81.7529 166.542 82.2837 167.338 82.5492C167.869 82.8146 168.135 83.3455 168.135 83.6109V83.8763C168.135 84.6726 167.869 85.4689 167.338 85.9998C167.073 86.2652 166.277 86.7961 164.684 87.0615C163.357 87.3269 161.499 86.7961 159.641 85.9998C159.11 85.7344 158.579 85.7343 158.314 85.7343C158.048 85.7343 157.783 85.7344 157.517 85.9998C157.252 85.9998 156.987 86.2652 155.925 87.0615C155.129 87.8578 154.598 88.3887 154.598 88.9195C155.394 89.4504 155.659 89.9813 156.19 90.5121Z" fill="white"/>
<path d="M197.863 88.3889C205.826 87.3272 209.808 84.142 210.073 78.5679C210.073 77.7716 210.073 77.2407 210.073 76.7099C209.808 75.1173 209.277 73.7901 208.215 72.9938C209.277 71.6666 209.808 69.8086 210.073 67.6852C210.073 67.1543 210.073 66.358 210.073 65.8271C209.808 63.9691 209.011 62.6419 207.684 61.8456C206.092 60.7839 202.907 60.7839 198.66 61.3148C196.271 61.5802 193.616 62.1111 190.697 62.9074H190.166L188.573 88.9198H189.369C194.147 88.6544 197.067 88.3889 197.863 88.3889ZM196.536 77.7716C196.802 77.7716 197.598 77.5062 199.721 77.2407C202.11 76.9753 202.376 77.2407 202.376 77.2407C202.376 77.2407 202.376 77.2407 202.641 77.7716C202.641 78.3025 202.641 78.8333 202.641 79.3642C202.641 80.9568 202.11 81.7531 201.845 82.0185C201.579 82.284 200.783 82.8148 198.925 83.0803C197.332 83.3457 196.536 83.3457 196.005 83.3457L196.536 77.7716C196.271 77.7716 196.271 77.7716 196.536 77.7716ZM202.376 68.4815C202.376 69.8086 201.845 70.6049 201.048 71.1358C200.252 71.6666 198.66 71.9321 196.536 72.4629L196.802 67.4197C197.067 67.4197 197.863 66.8889 200.783 66.6234C201.048 66.6234 201.314 66.6234 201.579 66.8889C201.845 67.1543 202.11 67.4197 202.11 67.6852C202.376 67.9506 202.376 68.216 202.376 68.4815ZM196.536 72.7284C196.536 72.9938 196.536 72.9938 196.536 72.7284Z" fill="white"/>
<path d="M214.054 83.346C215.381 84.6732 217.24 85.4695 220.159 85.4695C220.956 85.4695 222.017 85.4695 223.079 85.2041C227.326 84.6732 230.511 83.346 232.104 81.2226C233.962 79.0991 234.758 75.6485 235.024 70.6053C235.024 67.9509 235.024 65.8275 234.758 63.9694C234.493 62.1114 233.962 60.7842 232.9 59.9879C231.838 58.9262 230.777 58.3953 229.184 58.1299C227.857 57.8645 225.999 57.8645 223.344 58.3954C220.69 58.6608 218.567 59.4571 216.974 60.2534C215.381 61.3151 214.054 62.9077 213.258 64.7657C212.462 66.8892 211.931 69.5435 211.665 73.2596C211.665 75.3831 211.665 77.2411 211.931 78.8337C212.462 80.6917 213.258 82.2843 214.054 83.346ZM220.159 71.9324C220.159 69.2781 220.425 67.4201 220.69 66.3583C220.956 65.562 221.221 65.0312 221.221 64.7657C221.486 64.5003 221.752 64.2349 222.283 63.704C222.814 63.4386 223.344 63.1731 223.875 62.9077C224.406 62.6423 225.468 62.6423 226.53 62.3768C226.795 62.3768 226.795 62.3768 226.795 62.6423C226.795 62.6423 227.061 63.1731 227.061 63.704C227.326 65.0312 227.326 66.3583 227.326 67.6855C227.326 72.1979 227.061 75.3831 226.53 76.9757C226.264 77.772 225.999 78.3028 225.999 78.5683C225.999 78.8337 225.733 79.0991 224.937 79.3645C224.406 79.63 223.875 79.8954 223.344 79.8954C222.814 79.8954 221.752 80.1609 220.69 80.1609C220.425 80.1609 220.425 80.1609 220.159 80.1609C220.159 80.1609 219.894 79.63 219.628 78.3028C219.894 77.5065 219.894 75.3831 220.159 71.9324Z" fill="white"/>
<path d="M254.666 81.2227C255.728 81.2227 256.259 80.9573 256.524 80.6918C256.79 80.4264 257.055 79.8955 257.055 79.0992L257.851 65.5622L257.586 55.7411V55.2103C257.586 54.9448 257.32 54.414 256.79 54.1485C256.524 53.8831 255.728 53.8831 254.932 54.1485C254.135 54.1485 251.481 54.6794 251.216 56.272L250.685 67.4202L245.111 56.8029C244.845 56.272 244.314 56.0066 243.783 56.0066C243.253 55.7411 242.987 55.7411 242.722 55.7411C242.456 55.7411 242.191 55.7411 241.66 55.7411C240.864 55.7411 238.209 56.272 237.944 57.8646L236.617 80.9573C236.617 81.4881 236.617 81.7536 237.148 82.019C237.678 82.5499 238.209 82.5499 239.536 82.5499C240.067 82.5499 240.864 82.5499 241.66 82.2844C242.722 82.2844 243.253 82.019 243.518 81.7536C243.783 81.4881 244.049 80.9573 244.049 80.161L244.58 68.7473L250.685 79.3647C251.481 81.7536 253.87 81.2227 254.666 81.2227Z" fill="white"/>
<path d="M266.876 79.6297C267.938 79.6297 268.734 79.6297 269.796 79.3643C275.901 78.568 279.086 75.3828 279.351 69.5433C279.351 69.0124 279.351 68.747 279.351 68.4816C279.086 67.1544 278.555 66.0927 277.493 65.2964C276.432 64.5001 274.839 63.7038 272.716 63.1729C270.857 62.642 269.265 62.1112 268.469 61.5803C267.672 61.0494 267.407 60.784 267.407 60.2531V59.9877C267.407 59.1914 267.672 58.6605 268.203 58.3951C268.734 57.8643 269.265 57.5988 270.061 57.5988C270.857 57.5988 271.919 57.5988 272.981 57.8642C274.839 58.1297 275.104 58.1297 275.37 58.1297C275.635 58.1297 276.166 57.8642 276.432 57.8642C276.697 57.5988 276.962 57.3334 277.759 55.7408C278.024 55.4754 278.024 54.9445 278.024 54.6791C278.024 54.4136 277.759 53.8828 276.962 53.6173C276.697 53.6173 276.432 53.3519 276.166 53.3519C274.308 52.821 272.45 52.821 270.327 53.0865C267.141 53.6173 264.487 54.4136 262.894 55.7408C261.036 57.068 259.975 59.1914 259.975 61.8457C259.975 62.1112 259.975 62.3766 259.975 62.642C260.24 63.9692 261.036 65.0309 262.364 66.3581C263.691 67.4198 265.283 68.2161 267.141 68.747C268.999 69.2779 270.061 69.8087 270.857 70.0742C271.388 70.3396 271.654 70.8705 271.654 71.1359C271.654 71.1359 271.654 71.1359 271.654 71.4013C271.654 72.1976 271.388 72.9939 270.857 73.5248C270.592 73.7902 269.796 74.3211 268.203 74.5865C266.876 74.852 265.018 74.3211 263.16 73.5248C262.629 73.2594 262.098 73.2594 261.833 73.2594C261.567 73.2594 261.302 73.2594 261.036 73.5248C260.771 73.5248 260.506 73.7902 259.444 74.5865C258.648 75.3828 258.117 75.9137 258.117 76.4445C258.117 76.9754 258.382 77.5063 259.178 78.0371C261.302 78.8334 263.691 79.6297 266.876 79.6297Z" fill="white"/>
<path d="M151.677 105.641C149.289 103.783 145.307 103.518 139.202 104.049C136.017 104.58 132.035 105.111 127.789 106.438H127.258L125.134 143.864C125.134 144.395 125.4 144.926 125.665 145.191C126.196 145.722 127.258 145.987 128.585 145.987C129.381 145.987 130.177 145.987 131.239 145.722C132.566 145.456 133.363 145.191 133.894 144.926C134.424 144.66 134.424 143.864 134.69 142.802L135.221 130.061C138.14 129.796 140.795 129.265 143.184 128.469C145.307 127.938 147.165 126.876 149.289 125.549C151.412 124.222 153.005 122.098 153.801 119.179C154.597 116.79 154.863 113.87 154.597 111.216C154.597 109.092 153.536 106.969 151.677 105.641ZM135.752 122.098L136.282 112.543C136.282 112.277 136.282 112.012 136.813 112.012C137.344 112.012 138.671 111.746 142.387 111.216C142.387 111.216 142.387 111.216 142.653 111.216C142.918 111.216 143.449 111.481 143.715 112.012C144.245 112.808 144.511 113.87 144.511 114.932C144.776 116.259 144.511 117.586 143.98 118.913C143.715 119.444 143.184 119.975 142.653 120.506C141.856 121.037 141.06 121.302 140.264 121.302C139.468 121.567 138.14 121.567 136.282 121.833L135.752 122.098Z" fill="white"/>
<path d="M177.691 131.92L166.012 133.513L166.808 118.648L166.543 103.519C166.543 102.988 166.277 102.457 166.012 102.192C165.215 101.395 163.623 101.395 161.234 101.661C159.907 101.926 158.845 102.192 158.314 102.457C157.783 102.988 157.252 103.519 157.252 104.58L155.394 141.21L156.987 142.272L177.956 139.618C178.752 139.618 179.283 139.352 179.814 138.821C180.345 138.556 180.876 137.76 181.141 136.698C181.407 135.636 181.672 134.574 181.407 133.778C181.141 132.451 180.61 131.389 177.691 131.92Z" fill="white"/>
<path d="M211.134 112.809L207.684 97.9448C207.418 96.0868 204.499 96.0868 202.375 96.3522C193.35 97.4139 192.554 98.4757 192.289 99.272C192.289 99.5374 191.492 102.457 190.165 107.5C188.838 112.544 186.449 121.834 182.468 136.698C182.468 136.963 182.468 137.229 182.468 137.494C182.468 137.76 182.733 138.025 182.733 138.291C182.998 138.821 183.795 139.087 185.122 139.087C185.653 139.087 185.918 139.087 186.715 139.087L189.634 138.821C191.227 138.556 192.289 138.291 192.554 137.494C192.554 137.229 192.819 136.963 193.085 136.167L195.474 125.815L203.437 124.754L205.029 134.309C205.029 134.84 205.56 135.902 207.153 136.167C208.215 136.433 209.807 136.433 211.665 136.167C213.258 135.902 213.789 135.636 214.32 135.371C214.85 134.84 214.85 134.309 214.85 133.247L211.134 112.809ZM201.844 117.321L197.066 117.852L199.721 106.97L201.844 117.321Z" fill="white"/>
<path d="M249.357 92.1051C249.357 91.8397 249.092 91.0434 248.295 90.7779C248.03 90.5125 247.234 90.5125 245.376 90.7779C244.048 91.0434 240.332 91.3088 240.067 93.6977L239.271 112.278L230.246 94.7594C229.715 94.2286 229.184 93.6977 228.653 93.4323C228.122 93.1668 227.592 93.1668 227.061 93.1668C226.795 93.1668 226.264 93.1668 225.468 93.4323C224.141 93.6977 220.425 93.9631 220.159 96.6175L218.301 132.451C218.301 132.982 218.567 133.513 218.832 133.778C219.363 134.309 220.425 134.574 222.283 134.574C223.079 134.574 224.141 134.574 225.468 134.309C226.795 134.043 227.592 133.778 228.122 133.513C228.653 133.247 228.653 132.451 228.919 131.389L229.981 112.809L240.332 130.327C240.863 131.92 242.721 132.451 245.906 131.92C247.234 131.655 248.03 131.389 248.561 131.124C249.092 130.858 249.092 130.062 249.092 129L250.153 108.296L249.357 92.9014V92.1051Z" fill="white"/>
<path d="M283.068 112.013C282.802 110.155 282.006 108.562 280.413 107.235C278.821 105.908 276.432 104.846 272.981 104.05C270.062 103.254 267.673 102.457 266.346 101.661C265.284 100.865 264.487 100.068 264.487 99.2721C264.487 99.0067 264.487 99.0067 264.487 98.7413C264.487 97.4141 265.018 96.6178 265.815 95.8215C266.611 95.0252 267.673 94.4943 268.734 94.4943C270.062 94.2289 271.654 94.4943 273.512 94.7598C276.167 95.2906 276.963 95.2906 277.228 95.0252C277.759 95.0252 278.29 94.7598 278.555 94.4943C278.821 94.2289 279.086 93.9635 280.413 91.0437C280.679 90.5128 280.944 89.982 280.679 89.7165C280.679 89.1857 280.148 88.6548 279.352 88.3894C279.086 88.3894 278.555 88.1239 278.025 88.1239C275.105 87.3277 272.185 87.0622 269.265 87.5931C264.222 88.1239 260.506 89.7165 257.852 91.84C255.197 93.9635 253.605 97.1487 253.339 101.13C253.339 101.661 253.339 101.926 253.339 102.457C253.605 104.315 254.666 106.173 256.79 107.766C258.648 109.359 261.302 110.686 264.222 111.482C267.142 112.278 269 113.075 270.062 113.606C271.123 114.136 271.654 114.667 271.654 115.464C271.654 115.464 271.654 115.729 271.654 115.994C271.654 117.322 271.123 118.649 270.592 119.445C269.796 120.241 268.469 120.772 266.346 121.038C264.222 121.303 261.568 120.772 258.383 119.18C257.586 118.914 257.055 118.914 256.524 118.914C256.259 118.914 255.728 118.914 255.463 119.18C255.197 119.18 254.666 119.445 253.074 121.038C251.747 122.099 251.216 122.896 251.216 123.692C251.216 124.223 251.747 125.019 252.543 125.815C255.197 127.939 258.648 128.735 263.426 128.735C264.753 128.735 266.346 128.735 267.938 128.47C277.228 127.408 282.006 122.365 282.537 113.606C283.068 113.34 283.068 112.809 283.068 112.013Z" fill="white"/>
</svg>
